<svg width="40" height="40" viewBox="0 0 40 40" fill="none" xmlns="http://www.w3.org/2000/svg">
<path d="M14.7001 16.2502C13.2834 16.2502 11.8667 15.7169 10.7834 14.6336C10.3001 14.1502 10.3001 13.3502 10.7834 12.8669C11.2667 12.3836 12.0667 12.3836 12.5501 12.8669C13.7334 14.0502 15.6667 14.0502 16.8501 12.8669C17.3334 12.3836 18.1334 12.3836 18.6167 12.8669C19.1001 13.3502 19.1001 14.1502 18.6167 14.6336C17.5334 15.7002 16.1167 16.2502 14.7001 16.2502Z" fill="#7E57C2"/>
<path d="M25.3002 16.2502C23.8835 16.2502 22.4668 15.7169 21.3835 14.6336C20.9002 14.1502 20.9002 13.3502 21.3835 12.8669C21.8668 12.3836 22.6668 12.3836 23.1502 12.8669C24.3335 14.0502 26.2668 14.0502 27.4502 12.8669C27.9335 12.3836 28.7335 12.3836 29.2168 12.8669C29.7002 13.3502 29.7002 14.1502 29.2168 14.6336C28.1335 15.7002 26.7168 16.2502 25.3002 16.2502Z" fill="#7E57C2"/>
<path d="M26 21.0337H14C12.8333 21.0337 11.8833 21.9837 11.8833 23.167C11.8833 27.6504 15.5333 31.3004 20.0166 31.3004C24.5 31.3004 28.15 27.6504 28.15 23.167C28.1333 22.0004 27.1666 21.0337 26 21.0337Z" fill="#7E57C2"/>
</svg>
